<svg xmlns="http://www.w3.org/2000/svg" xmlns:xlink="http://www.w3.org/1999/xlink" version="1.1" x="0px" y="0px" viewBox="0 0 100 125" enable-background="new 0 0 100 100" xml:space="preserve"><circle cx="49.71" cy="88.5" r="6.5"/><path d="M69.123,11.234C64.59,7.078,58.543,5,50.978,5c-8.59,0-15.248,2.363-19.976,7.093c-4.242,4.24-6.21,11.986-6.904,17.988  c-0.016,0.142-0.006,0.281,0.007,0.422c-0.016,0.165-0.025,0.332-0.025,0.502c0,2.879,2.336,5.229,5.23,5.229  c2.732,0,4.984-2.118,5.205-4.796c0.011-0.143,0.053-0.667,0.063-0.761c0.527-4.943,1.906-8.743,4.136-11.403  c2.658-3.172,6.589-4.758,11.79-4.758c4.216,0,7.615,1.211,10.195,3.634c2.582,2.425,3.871,5.625,3.871,9.604  c0,2.797-0.51,5.318-1.535,7.564s-2.74,4.551-5.143,6.915l-4.609,4.61c-3.35,3.311-5.753,6.649-7.211,10.018  c-1.457,3.37-2.186,7.22-2.186,11.555c0,0.276,0.019,0.699,0.058,1.272c0.017,0.251,0.032,0.479,0.053,0.682  c0,0.027-0.004,0.053-0.004,0.08c0,2.923,2.37,5.293,5.293,5.293c2.832,0,5.136-2.225,5.279-5.02  c0.002-0.004,0.008-0.006,0.008-0.01c-0.002-0.02-0.002-0.052-0.004-0.075c0.004-0.063,0.012-0.124,0.012-0.188  c0-0.188-0.012-0.374-0.031-0.557c-0.014-0.635-0.025-1.446-0.025-1.949c0-3.273,0.504-6.028,1.508-8.276  c1.004-2.245,3.043-4.826,6.117-7.742l4.963-4.727c2.957-2.798,5.162-5.803,6.621-9.015c1.457-3.21,2.188-6.688,2.188-10.431  C75.92,20.898,73.652,15.393,69.123,11.234z"/><text x="0" y="115" fill="#000000" font-size="5px" font-weight="bold" font-family="'Helvetica Neue', Helvetica, Arial-Unicode, Arial, Sans-serif">Created by TMD</text><text x="0" y="120" fill="#000000" font-size="5px" font-weight="bold" font-family="'Helvetica Neue', Helvetica, Arial-Unicode, Arial, Sans-serif">from the Noun Project</text></svg>