<?xml version="1.0" encoding="UTF-8" standalone="no"?>
<svg
   xmlns:dc="http://purl.org/dc/elements/1.1/"
   xmlns:cc="http://creativecommons.org/ns#"
   xmlns:rdf="http://www.w3.org/1999/02/22-rdf-syntax-ns#"
   xmlns:svg="http://www.w3.org/2000/svg"
   xmlns="http://www.w3.org/2000/svg"
   xmlns:sodipodi="http://sodipodi.sourceforge.net/DTD/sodipodi-0.dtd"
   xmlns:inkscape="http://www.inkscape.org/namespaces/inkscape"
   version="1.1"
   x="0px"
   y="0px"
   viewBox="0 174.3 841.9 1052.375"
   enable-background="new 0 174.3 841.9 841.9"
   xml:space="preserve"
   id="svg18"
   sodipodi:docname="noun_Money Insurance_196102.svg"
   inkscape:version="1.0.1 (3bc2e813f5, 2020-09-07)"><metadata
     id="metadata24"><rdf:RDF><cc:Work
         rdf:about=""><dc:format>image/svg+xml</dc:format><dc:type
           rdf:resource="http://purl.org/dc/dcmitype/StillImage" /></cc:Work></rdf:RDF></metadata><defs
     id="defs22" /><sodipodi:namedview
     pagecolor="#ffffff"
     bordercolor="#666666"
     borderopacity="1"
     objecttolerance="10"
     gridtolerance="10"
     guidetolerance="10"
     inkscape:pageopacity="0"
     inkscape:pageshadow="2"
     inkscape:window-width="1920"
     inkscape:window-height="1017"
     id="namedview20"
     showgrid="false"
     inkscape:zoom="0.32"
     inkscape:cx="1879.5016"
     inkscape:cy="770.3983"
     inkscape:window-x="-8"
     inkscape:window-y="-8"
     inkscape:window-maximized="1"
     inkscape:current-layer="svg18" /><rect
     style="fill:#c8beb7"
     id="rect37"
     width="775"
     height="884.375"
     x="40.625"
     y="246.175" /><path
     id="path2"
     style="stroke-width:4.45604"
     d="m 388.56873,351.44606 c -0.64211,0 -1.1476,0.18987 -1.1476,0.42794 v 33.83198 c 0,0.23369 0.50549,0.42794 1.1476,0.42794 0.62845,0 1.14759,-0.18987 1.14759,-0.42794 V 351.874 c 0,-0.23369 -0.51914,-0.42794 -1.14759,-0.42794 z m 39.54427,6.9034 c -0.64211,0 -1.14759,0.28626 -1.14759,0.65578 v 25.90183 c 0,0.3739 0.50548,0.685 1.14759,0.685 0.64211,0 1.1476,-0.31402 1.1476,-0.685 v -25.90183 c 0,-0.36952 -0.50549,-0.65578 -1.1476,-0.65578 z m 83.06552,0 c -0.64212,0 -1.1476,0.47321 -1.1476,1.05597 v 50.71965 c 0,0.57837 0.51914,1.02676 1.1476,1.02676 0.6421,0 1.14759,-0.44401 1.14759,-1.02676 v -50.71965 c 0,-0.58276 -0.50549,-1.05597 -1.14759,-1.05597 z m 33.46063,0.45568 c -0.62845,0 -1.1476,0.47615 -1.1476,1.05598 v 27.8702 c 0,0.57838 0.51915,1.02676 1.1476,1.02676 0.64211,0 1.14759,-0.444 1.14759,-1.02676 v -27.8702 c 0,-0.57837 -0.51914,-1.05598 -1.14759,-1.05598 z m 61.15871,8.92859 c -0.64211,0 -1.17492,0.32132 -1.17492,0.71274 v 36.28541 c 0,0.39581 0.53281,0.74195 1.17492,0.74195 0.62845,0 1.1476,-0.32132 1.1476,-0.71274 V 368.4472 c 0,-0.3958 -0.51915,-0.71274 -1.1476,-0.71274 z m -136.91238,1.56906 c -0.64211,0 -1.17492,0.47321 -1.17492,1.05597 v 24.53243 c 0,0.58276 0.54647,1.05597 1.17492,1.05597 0.6421,0 1.14759,-0.47321 1.14759,-1.05597 v -24.53257 c 0,-0.58276 -0.50549,-1.05598 -1.14759,-1.05598 z m 98.83403,2.11091 c -0.64211,0 -1.17492,0.47323 -1.17492,1.05598 v 27.87006 c 0,0.58275 0.53281,1.05597 1.17492,1.05597 0.64211,0 1.14759,-0.47322 1.14759,-1.05597 v -27.87006 c 0,-0.58275 -0.50548,-1.05598 -1.14759,-1.05598 z m -157.67159,21.28055 c -3.09852,0 -8.72173,0.14605 -11.41996,1.25459 -2.22688,0.91431 -3.44142,2.60752 -4.85678,4.5642 -1.54926,2.13107 -3.48516,4.78751 -7.47032,7.33119 -2.4605,1.56964 -3.798,3.49639 -4.00292,5.73379 -0.38253,4.23674 3.64771,7.89555 3.81576,8.04438 0.13661,0.11682 0.27323,0.19279 0.42352,0.25705 0.21858,0.0876 5.43742,2.16803 11.87489,2.16803 2.65586,0 5.11773,-0.35345 7.39107,-1.05597 -2.21322,8.91573 0.73774,22.04732 0.84704,22.42151 v 21.90812 c -1.41948,-0.91429 -3.05344,-1.62587 -4.69696,-1.62587 -1.36619,0 -3.81028,0.53602 -4.93602,4.07914 -1.66676,5.26191 0.002,8.45465 0.13661,8.58653 0.24591,0.44254 0.73773,0.71274 1.28422,0.71274 h 21.96008 c 0.79239,0 1.43996,-0.56522 1.43996,-1.28381 V 449.4601 c 1.91402,0.88947 4.31305,1.31156 7.25855,1.31156 5.67104,0 12.62766,-1.5968 19.3452,-3.16645 6.36233,-1.4845 12.36945,-2.88106 16.94344,-2.88106 4.51936,0 5.92925,1.4138 6.56453,2.56733 0.61478,7.20998 1.02464,15.08375 0.83338,18.54203 -1.21591,-0.94352 -2.27457,-1.48333 -3.36205,-1.48333 -1.46593,0 -2.40312,0.93328 -3.49608,1.99671 -0.27323,0.26727 -0.58745,0.54039 -0.929,0.85587 -3.50154,3.19041 -0.3962,8.91456 -0.27323,9.15702 0.2459,0.44254 0.75139,0.71274 1.2842,0.71274 h 19.63743 c 0.79239,0 1.41401,-0.56523 1.41401,-1.28382 v -15.57536 c -0.5738,-4.05388 -1.69271,-15.40857 -0.13662,-19.28368 1.74189,-4.16021 0.8607,-11.52923 0.34155,-14.71963 h 12.80799 c 0.79239,0 1.44133,-0.56523 1.44133,-1.28381 v -7.41679 c 0,-0.71858 -0.65578,-1.31156 -1.44133,-1.31156 h -75.72635 v -6.58953 c 1.55471,1.32764 3.92778,2.61349 7.49763,3.16645 2.55341,0.39582 3.98106,-0.55646 4.26933,-2.3392 0.72409,-4.54287 -8.20121,-15.31159 -12.78068,-16.54516 -2.7351,-0.73612 -7.94846,-1.19764 -13.28888,-1.19764 z m 223.41932,8.70044 c -0.62844,0 -1.1476,0.31693 -1.1476,0.71274 v 36.28541 c 0,0.39142 0.51916,0.71274 1.1476,0.71274 0.6421,0 1.1476,-0.32132 1.1476,-0.71274 v -36.28541 c 0,-0.39581 -0.5055,-0.71274 -1.1476,-0.71274 z m -102.30279,14.34865 c -0.64211,0 -1.1476,0.47322 -1.1476,1.05598 v 59.4201 c 0,0.58275 0.51915,1.05596 1.1476,1.05596 0.62845,0 1.17493,-0.47321 1.17493,-1.05596 v -59.4201 c 0,-0.58276 -0.54648,-1.05598 -1.17493,-1.05598 z m 36.82283,3.76558 c -1.70364,0 -2.06158,1.71438 -2.48235,3.87948 -0.20494,1.04284 -0.81972,4.22184 -1.78698,4.22184 v 0 c -3.98653,-1.06765 -7.93618,-0.76824 -12.11397,0.9406 -2.16132,0.88947 -2.20504,2.65424 -2.24192,4.07929 0,1.73557 -0.13662,3.52282 -3.06845,5.41992 -2.02606,1.29697 -3.14087,2.88501 -3.30891,4.73537 -0.31422,3.48808 2.98922,6.47648 3.17502,6.64664 0.13662,0.073 2.47963,1.96836 6.56453,1.96836 1.42766,0 2.88265,-0.22929 4.37588,-0.68498 -1.58749,7.15899 0.6831,17.25556 0.77874,17.5151 v 17.08718 c -1.06562,-0.63388 -2.27607,-1.11294 -3.49471,-1.11294 -1.16125,0 -3.24606,0.45423 -4.19009,3.42308 -1.35253,4.28785 0,6.9069 0.13661,7.01746 0.23226,0.4294 0.72408,0.71275 1.25689,0.71275 h 17.53091 c 0.76507,0 1.38805,-0.58569 1.38805,-1.28383 v -20.65292 c 4.58355,1.89285 13.05254,0.24098 21.05293,-1.62603 5.06582,-1.18304 9.8748,-2.31058 13.50202,-2.31058 3.41274,0 4.50433,1.05159 4.98932,1.91127 0.46451,5.44475 0.76506,11.37353 0.66943,14.29154 -0.8607,-0.61196 -1.64352,-0.94059 -2.45503,-0.94059 -1.27056,0 -2.0848,0.80768 -2.9619,1.65451 l -0.72408,0.685 c -2.92773,2.66285 -0.36886,7.35951 -0.27324,7.55947 0.23226,0.42501 0.72409,0.71274 1.2569,0.71274 h 15.66332 c 0.76507,0 1.38806,-0.58567 1.38806,-1.28381 v -12.43739 c -0.45085,-3.22006 -1.33887,-12.27717 -0.13662,-15.31861 1.79653,-4.28771 0.15027,-12.72059 0.13662,-12.86533 -0.13662,-8.14193 -0.51916,-22.08923 -2.61352,-23.99057 -1.66675,-1.5229 -7.93208,-3.52078 -16.81093,-6.04751 l -1.54789,-0.4557 c -2.65586,-0.76532 -5.46748,0.79454 -5.89646,3.13784 -0.30056,1.6079 0.53281,3.67866 3.7092,4.67825 l 2.42771,0.74196 c 3.75291,1.15237 8.88841,2.72186 9.7655,3.50881 0.53281,0.93621 0.2869,6.36753 -0.28689,11.26778 h -38.79835 v -8.32961 c 0.27325,-1.48027 2.46599,-14.54802 -3.04112,-17.85746 -0.42352,-0.39142 -0.88802,-0.59883 -1.41537,-0.59883 z m -63.7203,19.05539 c -0.64212,0 -1.17493,0.32132 -1.17493,0.71274 v 36.31506 c 0,0.39143 0.53281,0.685 1.17493,0.685 0.6421,0 1.1476,-0.29357 1.1476,-0.685 v -36.31388 c 0,-0.39581 -0.51917,-0.71274 -1.1476,-0.71274 z m -121.99636,1.51195 c -0.62845,0 -1.1476,0.10222 -1.1476,0.22785 v 16.91599 c 0,0.11682 0.51915,0.2001 1.1476,0.2001 0.6421,0 1.14759,-0.073 1.14759,-0.2001 v -16.91599 c 0,-0.11682 -0.50549,-0.22785 -1.14759,-0.22785 z m 255.81296,27.41365 c -0.62844,0 -1.14759,0.47321 -1.14759,1.05596 v 53.60087 c 0,0.58276 0.51915,1.05597 1.14759,1.05597 0.64211,0 1.1476,-0.47759 1.1476,-1.05597 v -53.60087 c 0,-0.58275 -0.50549,-1.05596 -1.1476,-1.05596 z m -219.20326,16.9731 c -0.64212,0.004 -1.1476,0.47321 -1.1476,1.05596 v 25.01748 c 0,0.58276 0.50548,1.05598 1.1476,1.05598 0.6421,0 1.14759,-0.47322 1.14759,-1.05598 v -25.01748 c 0,-0.58275 -0.51915,-1.05596 -1.14759,-1.05596 z m 86.3744,1.05596 c -3.54388,0 -6.40468,2.59086 -6.40468,5.81939 v 1.28382 c -60.74474,2.59056 -109.13372,48.26725 -109.13372,104.26326 v 15.68944 c 0,0 12.80254,-12.71607 25.58869,-15.68944 h 10.16579 c 13.18779,2.97337 27.69806,15.68944 27.69806,15.68944 0,0 14.94471,-12.71607 41.03889,-15.68944 h 4.64229 v 109.59774 c 0,0.0292 0.13662,0.0292 0.13662,0.0584 3.8704,2.53886 8.47719,2.29788 12.72876,3.33748 V 596.88689 h 4.13545 c 25.19385,2.97322 36.31597,15.68929 36.31597,15.68929 0,0 12.38176,-12.71607 26.95077,-15.68929 h 11.76696 c 14.77394,2.97322 27.99043,15.68929 27.99043,15.68929 v -15.68929 c 0,-55.39631 -47.33973,-100.68245 -107.15958,-104.14934 v -1.39774 c 0,-3.22853 -2.88812,-5.81924 -6.43064,-5.81924 z m -116.68599,12.52298 c -0.64211,0 -1.1476,0.16067 -1.1476,0.39874 v 33.86061 c 0,0.2293 0.50549,0.42795 1.1476,0.42795 0.62845,0 1.14759,-0.19426 1.14759,-0.42795 v -33.86061 c 0,-0.23369 -0.51914,-0.39874 -1.14759,-0.39874 z m 213.17293,6.90341 c -0.64211,0 -1.1476,0.47321 -1.1476,1.05596 v 22.07931 c 0,0.58275 0.51915,1.02675 1.1476,1.02675 0.6421,0 1.14759,-0.444 1.14759,-1.02675 v -22.07931 c 0,-0.58275 -0.51915,-1.05596 -1.14759,-1.05596 z m -91.33777,204.84668 c -0.3279,0.14606 -0.68309,0.28773 -1.01098,0.42794 h 2.29519 v -0.31402 c -0.47816,-0.10222 -1.01097,-0.22931 -1.28421,-0.11682 z" /><g
     id="g12"
     transform="matrix(-0.63157753,0,0,0.66627596,757.47326,341.4263)"><circle
       cx="556.90002"
       cy="493.79999"
       r="47.299999"
       id="circle8" /><path
       d="m 612.4,551 h -106 c -23.3,0.4 -35.6,24.4 -55.3,49.3 l -41.3,-60.8 c -6.3,-9.2 -18.9,-11.7 -28.2,-5.4 -9.2,6.3 -11.7,18.9 -5.4,28.2 l 59.5,87.3 c 3.6,5.4 9.8,8.7 16.3,8.9 0.2,0 0.3,0 0.5,0 6.3,0 12.3,-3 16.2,-8.1 l 25.9,-34.2 h 6.8 l -0.2,374.2 c 0,14.6 11.9,26.5 26.5,26.5 14.7,0 26.5,-11.9 26.5,-26.5 v -213 H 566 l -0.1,213.1 c 0,14.6 11.9,26.5 26.5,26.5 14.6,0 26.5,-11.9 26.5,-26.5 L 619,616.3 h 11.7 v 141.5 c 0,28.4 37.1,28.4 37,0 V 613.3 C 667.6,581.8 649.2,551 612.4,551 Z"
       id="path10" /></g></svg>
