<?xml version="1.0" encoding="UTF-8" standalone="no"?>
<svg
   xmlns:dc="http://purl.org/dc/elements/1.1/"
   xmlns:cc="http://creativecommons.org/ns#"
   xmlns:rdf="http://www.w3.org/1999/02/22-rdf-syntax-ns#"
   xmlns:svg="http://www.w3.org/2000/svg"
   xmlns="http://www.w3.org/2000/svg"
   xmlns:sodipodi="http://sodipodi.sourceforge.net/DTD/sodipodi-0.dtd"
   xmlns:inkscape="http://www.inkscape.org/namespaces/inkscape"
   viewBox="0 0 87 65"
   version="1.1"
   x="0px"
   y="0px"
   id="svg36"
   sodipodi:docname="noun_confused_1715237.svg"
   inkscape:version="1.0.1 (3bc2e813f5, 2020-09-07)">
  <metadata
     id="metadata42">
    <rdf:RDF>
      <cc:Work
         rdf:about="">
        <dc:format>image/svg+xml</dc:format>
        <dc:type
           rdf:resource="http://purl.org/dc/dcmitype/StillImage" />
        <dc:title>Confused Rub</dc:title>
      </cc:Work>
    </rdf:RDF>
  </metadata>
  <defs
     id="defs40" />
  <sodipodi:namedview
     pagecolor="#ffffff"
     bordercolor="#666666"
     borderopacity="1"
     objecttolerance="10"
     gridtolerance="10"
     guidetolerance="10"
     inkscape:pageopacity="0"
     inkscape:pageshadow="2"
     inkscape:window-width="1920"
     inkscape:window-height="1017"
     id="namedview38"
     showgrid="false"
     inkscape:zoom="2.9942529"
     inkscape:cx="-3.4426947"
     inkscape:cy="6.8857015"
     inkscape:window-x="1912"
     inkscape:window-y="7"
     inkscape:window-maximized="1"
     inkscape:current-layer="svg36"
     inkscape:document-rotation="0" />
  <title
     id="title2">Confused Rub</title>
  <desc
     id="desc4">Created with Sketch.</desc>
  <g
     stroke="none"
     stroke-width="1"
     fill="none"
     fill-rule="evenodd"
     id="g30"
     transform="matrix(0.42219242,0,0,0.55599469,47.200654,8.7287193)">
    <g
       transform="translate(-225.23881,-3092.8054)"
       fill="#000000"
       fill-rule="nonzero"
       id="g28">
      <g
         transform="translate(211.13356,3088)"
         id="g26">
        <path
           d="m 27.58158,26.926567 c 1.402225,1.870915 1.012291,4.773329 -0.701113,6.365719 -1.288895,1.196694 -3.090658,1.663462 -4.834796,1.893965 -2.91394,0.384171 -5.918159,0.234344 -8.72261,-0.643487 -0.768342,-0.240107 -1.536685,-0.545523 -2.112942,-1.100651 -0.475358,-0.475476 -0.821188,-1.064645 -1.004608,-1.711483 -0.870148,-2.835185 1.125622,-6.200525 4.033799,-6.797912 0.586048,-0.103729 1.179734,-0.158343 1.774871,-0.163272 l 3.701491,-0.13254 c 1.423355,-0.05186 2.863997,-0.09988 4.258539,0.192086 1.394542,0.29197 2.762192,0.960428 3.615052,2.097575 z m -2.454855,4.262381 c 0.549365,-0.862464 0.192086,-2.080287 -0.56089,-2.767954 -0.752976,-0.687667 -1.809447,-0.948903 -2.82558,-1.062234 -2.112943,-0.236265 -4.256618,0.06339 -6.36764,0.363042 -0.806759,0.113331 -1.699958,0.274683 -2.19746,0.922011 -0.555127,0.720321 -0.370725,1.820972 0.218978,2.512481 0.589703,0.691508 1.488664,1.043025 2.3761,1.244715 2.178251,0.49366 4.446782,0.230503 6.663451,-0.03458 1.000766,-0.122934 2.139834,-0.322704 2.685358,-1.179406 z"
           id="path6" />
        <path
           d="m 11.544348,15.693398 c 2.081523,-1.373243 4.271506,-2.574554 6.5482,-3.592001 10.276583,-4.4391001 22.149397,-3.1309968 32.917719,-0.07299 1.092968,0.311179 2.637336,0.420668 2.994616,-0.658854 0.468689,-1.4156712 2.370337,-1.8593891 3.772562,-1.3446 1.402225,0.51479 2.451013,1.6577 3.576635,2.635416 2.413101,2.088282 5.339042,3.49589 8.47674,4.077978 2.819818,0.518631 5.94121,0.42643 8.219345,2.164806 2.207065,1.684591 3.073371,4.719544 5.334219,6.338826 0.866307,0.620437 1.907411,1.006529 2.652703,1.769109 0.745293,0.76258 1.048788,2.143676 0.242028,2.840947 -1.05455,0.912407 -2.618127,-0.172877 -3.561268,-1.200535 l -4.781012,-5.21705 c -1.071838,-1.167881 -2.187856,-2.368416 -3.636182,-3.013824 -1.667303,-0.743371 -3.565109,-0.662695 -5.378398,-0.927773 -5.044169,-0.741451 -9.233558,-4.143288 -13.142501,-7.414507 1.841767,4.294758 5.575613,7.489113 10.103706,8.643855 0.981558,0.242028 2.005374,0.384171 2.881285,0.881673 0.87591,0.497502 1.609677,1.444484 1.463692,2.443329 -0.38295,2.620469 0.58309,5.257134 2.568344,7.009923 1.985255,1.752789 4.721296,2.384705 7.274126,1.680033 0.991162,-0.274683 2.305027,-0.635804 2.852472,0.230502 0.612753,0.960429 -0.551286,2.076447 -1.611599,2.477905 -3.093547,1.164393 -6.553395,0.817213 -9.353911,-0.938621 -2.800515,-1.755834 -4.620328,-4.718833 -4.919974,-8.010649 -0.06339,-0.710717 -0.06339,-1.45601 -0.393776,-2.087971 -0.330387,-0.631962 -1.139068,-1.089126 -1.769109,-0.752976 2.881285,8.415273 1.646174,18.136728 -3.253931,25.560838 -0.624278,0.945062 -1.442563,1.936224 -2.572027,2.030346 -1.129463,0.09412 -2.208985,-1.423355 -1.377254,-2.191698 7.587134,-6.997393 8.476032,-18.668782 2.036108,-26.734482 -5.286197,-6.621192 -14.214339,-9.131752 -22.656503,-9.882807 -4.162497,-0.368804 -8.394144,-0.401459 -12.485568,0.478294 -3.795613,0.816364 -7.397219,2.408754 -10.710696,4.435258 -4.5831643,2.800608 -8.8551493,6.782544 -10.1017852,12.007274 -1.432959,6.01036 1.4944264,12.293482 5.570484,16.938113 0.576257,0.655012 1.2178232,1.452168 1.0007662,2.305028 -0.192085,0.768343 -1.0737587,1.18901 -1.8555473,1.110255 -0.7817887,-0.07876 -1.4675345,-0.543602 -2.063,-1.056471 C 4.9481265,47.399057 3.830188,45.787458 2.9100977,44.097104 -0.37456703,38.059852 -1.1409888,30.326484 2.3050279,24.377591 4.4487038,20.679942 7.956188,17.996505 11.544348,15.693398 Z"
           id="path8" />
        <path
           d="m 27.383731,43.138597 c -0.503264,-0.3592 -0.60699,-1.102572 -0.372646,-1.674987 0.234345,-0.572415 0.733767,-0.991162 1.258161,-1.315787 2.224352,-1.383016 4.994227,-1.406067 7.620038,-1.388779 0.841336,0 1.705721,0.01729 2.481747,0.341913 0.776026,0.324624 1.448326,1.044945 1.450247,1.886281 0,0.935457 -0.791393,1.690353 -1.632728,2.099496 -1.3446,0.65117 -2.881285,0.735688 -4.360345,0.729925 -1.829942,-0.0091 -3.657347,-0.137418 -5.470599,-0.384171 -0.343556,-0.01811 -0.677654,-0.118929 -0.973875,-0.293891 z"
           id="path10" />
        <path
           d="m 44.948044,33.630357 c -1.223586,0 -2.470222,-0.01152 -3.630419,-0.397617 -1.160197,-0.386092 -2.237798,-1.227428 -2.587394,-2.397229 -0.13724,-0.524201 -0.177599,-1.069057 -0.119093,-1.607757 0.0526,-1.044686 0.35283,-2.061897 0.875911,-2.967724 0.768342,-1.258161 2.084129,-2.112942 3.482513,-2.583552 1.398383,-0.47061 2.89281,-0.576257 4.368028,-0.603149 1.475217,-0.02689 2.954277,0.03073 4.348819,0.476373 1.394542,0.445638 2.702645,1.327312 3.394153,2.620048 0.740755,1.463038 0.696,3.200539 -0.119093,4.623502 -0.834673,1.401721 -2.228307,2.3802 -3.830188,2.689199 -0.815461,0.134638 -1.64234,0.187404 -2.4683,0.15751 z m -1.598153,-3.008061 c 2.620091,0.251712 5.259104,0.23369 7.875512,-0.05378 0.987321,-0.107568 1.625045,-1.262003 1.41183,-2.232036 -0.213215,-0.970032 -1.064155,-1.698037 -1.997691,-2.038029 -0.933536,-0.339991 -1.947748,-0.357279 -2.940831,-0.370725 l -2.393388,-0.03265 c -0.843256,-0.01153 -1.761425,0 -2.414516,0.535919 -0.356131,0.326508 -0.631074,0.731687 -0.802919,1.183247 -0.411063,0.927774 -0.576256,2.235877 0.29005,2.760271 0.29929,0.152502 0.628536,0.237109 0.96427,0.247791 z"
           id="path12" />
        <path
           d="m 27.024531,22.345325 c -0.257395,1.002687 -1.559735,1.223585 -2.593156,1.248556 l -9.967325,0.224741 c -1.140989,0.02689 -2.585473,-0.149827 -2.929306,-1.238953 0.273147,-0.932517 1.057716,-1.625179 2.016899,-1.780634 0.498451,-0.05232 1.001323,-0.04587 1.498268,0.01921 2.977328,0.226661 5.954656,-0.384172 8.933904,-0.505186 0.710717,-0.02881 1.454089,-0.02305 2.091813,0.297733 0.637724,0.320783 1.125622,1.044946 0.948903,1.734534 z"
           id="path14" />
        <path
           d="M 59.675251,7.232025 C 58.090545,6.1256116 55.641453,6.000756 54.414025,7.5009449 54.029854,7.9734757 53.176994,7.4510027 53.19044,6.844012 c 0.01345,-0.6069907 0.526314,-1.0776005 1.0315,-1.4137505 0.886638,-0.5889738 1.871572,-1.0144339 2.908176,-1.2562402 0.797851,-0.2163031 1.637147,-0.22951 2.441409,-0.038417 0.559947,0.1826879 1.093898,0.437073 1.588549,0.7568175 l 1.849784,1.0872048 c 0.704955,0.4149051 1.50211,0.9873203 1.471377,1.8056052 -0.03842,1.0065289 -1.377255,1.4809805 -2.33,1.152514 C 61.198491,8.6092792 60.506982,7.8102029 59.675251,7.232025 Z"
           id="path16" />
        <path
           d="m 45.754804,16.903538 c 1.611598,-0.174798 3.205909,0.384171 4.706098,0.98732 0.946983,0.384171 2.03995,1.021896 2.026504,2.043792 -0.01152,0.922011 -1.010371,1.575102 -1.932382,1.575102 -0.922011,0 -1.77295,-0.461006 -2.596998,-0.87399 -0.824047,-0.412984 -1.728771,-0.802918 -2.641178,-0.65117 -1.106413,0.192085 -1.920856,1.106413 -2.689199,1.920856 -0.768342,0.814444 -1.728771,1.646174 -2.852472,1.54629 -0.495581,-0.04418 -1.039183,-0.384171 -1.033421,-0.881673 0,-0.29197 0.192086,-0.545523 0.372647,-0.768343 1.755663,-2.208985 3.830188,-4.585085 6.640401,-4.898184 z"
           id="path18" />
        <path
           d="M 59.227692,2.0015326 C 58.949168,1.4425633 59.371756,0.75873835 59.911517,0.44563873 61.052506,-0.21705679 62.514277,0.18056052 63.686,0.78563034 64.362141,1.1352262 65.090146,1.6999581 65.030599,2.4586964 64.974895,3.3115567 63.93379,3.7725623 63.088613,3.6515484 62.243437,3.5305344 61.498144,3.040716 60.679859,2.7929255 60.14202,2.625811 59.483166,2.5124804 59.227692,2.0015326 Z"
           id="path20" />
        <path
           d="m 18.745639,28.257721 c 1.087205,-0.159431 2.51056,0.138302 2.706487,1.219744 0.153669,0.845177 -0.622357,1.609678 -1.448326,1.845943 -0.825968,0.236266 -1.703799,0.11141 -2.560501,0.161352 -0.891278,0.04994 -1.392621,-1.194773 -0.960429,-1.978482 0.432193,-0.783709 1.381096,-1.117939 2.262769,-1.248557 z"
           id="path22" />
        <path
           d="m 45.856609,27.172437 c 0.733767,-0.318862 1.555894,-0.547444 2.326157,-0.334229 0.770264,0.213215 1.421434,1.010371 1.223586,1.784476 -0.155589,0.612753 -0.768342,1.006529 -1.36765,1.196694 -0.783572,0.240682 -1.62134,0.240682 -2.404912,0 -0.474452,-0.145986 -0.960429,-0.430272 -1.100651,-0.906645 -0.217057,-0.760659 0.589703,-1.419513 1.32347,-1.740296 z"
           id="path24" />
      </g>
    </g>
  </g>
  <path
     d="m 34.505707,24.238275 v 1.074686 c 0,0 -0.967982,-0.871107 -2.049402,-1.074686 h -0.861719 c -1.066386,0.203579 -1.972182,1.074686 -1.972182,1.074686 0,0 -0.813542,-0.871107 -2.657594,-1.074686 h -0.304438 v 8.071209 h -6.83e-4 c -0.0055,0.737135 -0.710355,1.33593 -1.576516,1.33593 -0.869578,0 -1.577199,-0.602873 -1.577199,-1.344376 0,-0.221054 0.210134,-0.399585 0.46947,-0.399585 0.259335,0 0.469469,0.178531 0.469469,0.399585 0,0.29998 0.286329,0.544332 0.63826,0.544332 0.35159,0 0.637577,-0.243479 0.63826,-0.543167 v -8.063928 h -0.339631 c -1.909996,0.203579 -3.0044,1.074686 -3.0044,1.074686 0,0 -1.061261,-0.871107 -2.026509,-1.074686 h -0.744182 c -0.935863,0.203579 -1.87241,1.074686 -1.87241,1.074686 v -1.074686 c 0,-3.833918 3.54118,-6.962156 7.987474,-7.139523 v -0.08621 c 0,-0.221053 0.210133,-0.399876 0.469469,-0.399876 0.259336,0 0.46947,0.178823 0.46947,0.399876 v 0.09407 c 4.378641,0.237363 7.844993,3.338807 7.844993,7.13166 z m -17.004433,-12.1189 c 0.01606,0.0061 0.397375,0.148243 0.868553,0.148243 0.194416,0 0.375849,-0.02417 0.542248,-0.07223 -0.161957,0.610444 0.05227,1.509511 0.06082,1.53514 v 1.499609 c -0.103871,-0.06262 -0.222776,-0.110963 -0.343048,-0.110963 -0.09977,0 -0.279495,0.0364 -0.36184,0.27901 -0.12198,0.360267 0.0013,0.579281 0.0068,0.58831 0.01776,0.03029 0.05399,0.04951 0.09362,0.04951 h 1.607268 c 0.05774,0 0.104554,-0.0399 0.104554,-0.08912 v -1.802213 c 0.140089,0.06087 0.316055,0.09058 0.531655,0.09058 0.415142,0 0.923905,-0.110673 1.415584,-0.218141 0.465712,-0.101644 0.905797,-0.197754 1.240644,-0.197754 0.330747,0 0.435301,0.09698 0.48177,0.17591 0.04476,0.493657 0.07346,1.03333 0.05877,1.270111 -0.08918,-0.06465 -0.165373,-0.10077 -0.244985,-0.10077 -0.107288,0 -0.175966,0.06262 -0.255919,0.135427 -0.02016,0.01835 -0.04237,0.03845 -0.06765,0.06 -0.256261,0.218432 -0.02904,0.610444 -0.01948,0.627045 0.01776,0.03029 0.05399,0.04893 0.09328,0.04893 h 1.436768 c 0.05774,0 0.104554,-0.0399 0.104554,-0.08912 l -6.83e-4,-1.065366 c -0.04203,-0.277554 -0.124372,-1.055754 -0.0062,-1.321077 0.127448,-0.284835 0.06219,-0.788976 0.02494,-1.007408 h 0.938597 c 0.05774,0 0.104555,-0.0399 0.104555,-0.08912 v -0.506765 c 0,-0.04922 -0.04681,-0.08912 -0.104555,-0.08912 h -5.543059 v -0.451135 c 0.11378,0.09087 0.287012,0.178241 0.548398,0.216102 0.186899,0.02709 0.29077,-0.03844 0.311954,-0.160475 0.05262,-0.311047 -0.599991,-1.047599 -0.93518,-1.13206 -0.200225,-0.05039 -0.582224,-0.08329 -0.973107,-0.08329 -0.226876,0 -0.636893,0.01136 -0.834385,0.08737 -0.162982,0.06262 -0.252844,0.17824 -0.356373,0.312212 -0.113438,0.145912 -0.254552,0.327939 -0.546348,0.502102 -0.180066,0.107469 -0.278811,0.23911 -0.293845,0.392304 -0.02801,0.290078 0.268219,0.539964 0.28052,0.550157 0.0089,0.0079 0.01948,0.01369 0.03075,0.01806 z m 0.14829,7.725504 c 0.04647,0 0.0844,-0.01281 0.0844,-0.02883 v -2.317126 c 0,-0.01602 -0.03793,-0.02913 -0.0844,-0.02913 -0.04681,0 -0.08474,0.01282 -0.08474,0.02913 v 2.317126 c 0,0.01573 0.03793,0.02883 0.08474,0.02883 z m 0,-10.0365141 c 0.04647,0 0.0844,-0.01281 0.0844,-0.02912 V 7.4624094 c 0,-0.01602 -0.03793,-0.02912 -0.0844,-0.02912 -0.04681,0 -0.08474,0.01281 -0.08474,0.02912 v 2.3171265 c 0,0.01602 0.03793,0.02883 0.08474,0.02883 z m 2.134138,6.8043031 v 1.714255 c 0,0.0399 0.03759,0.07194 0.0844,0.07194 0.04647,0 0.0844,-0.03204 0.0844,-0.07194 v -1.714255 c 0,-0.0399 -0.03793,-0.07223 -0.0844,-0.07223 -0.04681,2.91e-4 -0.0844,0.03233 -0.0844,0.07223 z m 0.759899,-6.8421651 c 0.04681,0 0.0844,-0.02068 0.0844,-0.04602 V 7.9516894 c 0,-0.02534 -0.03759,-0.04602 -0.0844,-0.04602 -0.04681,0 -0.0844,0.02068 -0.0844,0.04602 v 1.7727935 c 0,0.02563 0.03759,0.04602 0.0844,0.04602 z M 23.5275,10.480844 c 0.04681,0 0.08474,-0.03233 0.08474,-0.07223 V 8.7290174 c 0,-0.0399 -0.03793,-0.07194 -0.08474,-0.07194 -0.04647,0 -0.0844,0.03204 -0.0844,0.07194 v 1.6795966 c 0,0.0399 0.03793,0.07223 0.0844,0.07223 z m 4.560073,5.568269 c 0.04647,0 0.0844,-0.03204 0.0844,-0.07194 v -4.069825 c 0,-0.0399 -0.03793,-0.07194 -0.0844,-0.07194 -0.04647,0 -0.0844,0.03204 -0.0844,0.07194 v 4.069825 c 0,0.0399 0.03827,0.07194 0.0844,0.07194 z m 1.575149,-1.772794 c 0.104554,0 0.212184,-0.01573 0.321522,-0.04689 -0.116171,0.490161 0.04852,1.182446 0.05501,1.200211 v 1.169049 c -0.07859,-0.04339 -0.16674,-0.07485 -0.255919,-0.07485 -0.08474,0 -0.237127,0.03029 -0.306146,0.233577 -0.09943,0.293573 0.0024,0.47356 0.0068,0.481133 0.01708,0.02941 0.05228,0.04806 0.09089,0.04806 h 1.283706 c 0.05569,0 0.100796,-0.03874 0.100796,-0.0865 V 15.78496 c 0.33553,0.129603 0.956706,0.01631 1.542347,-0.111546 0.370724,-0.08096 0.721289,-0.157562 0.986775,-0.157562 0.249769,0 0.331089,0.07077 0.366623,0.129603 0.03383,0.372791 0.05569,0.779657 0.04886,0.979449 -0.06321,-0.04194 -0.11993,-0.06465 -0.179383,-0.06465 -0.09328,0 -0.153415,0.05476 -0.217651,0.112711 l -0.05296,0.04747 c -0.214234,0.182317 -0.02699,0.504723 -0.01913,0.518412 0.01743,0.02913 0.05228,0.04747 0.09123,0.04747 h 1.145998 c 0.05604,0 0.102162,-0.03873 0.102162,-0.0865 l -0.0013,-0.853049 c -0.03348,-0.220471 -0.09875,-0.839071 -0.0062,-1.047309 0.131548,-0.293573 0.01025,-0.872563 0.0072,-0.882465 -0.0065,-0.557439 -0.03827,-1.511842 -0.191341,-1.642027 -0.121981,-0.104268 -0.580516,-0.241443 -1.230394,-0.414442 l -0.112754,-0.03029 c -0.194417,-0.05242 -0.400108,0.05359 -0.431543,0.214064 -0.02153,0.110089 0.03827,0.251633 0.270953,0.320075 l 0.178358,0.05155 c 0.274711,0.07893 0.650901,0.186978 0.715137,0.240858 0.03929,0.06407 0.02016,0.435117 -0.02221,0.770628 h -2.83971 l -0.0011,-0.569671 c 0.01948,-0.101352 0.180066,-0.996632 -0.223117,-1.223219 -0.03109,-0.02679 -0.06594,-0.04048 -0.104213,-0.04048 -0.124713,0 -0.149997,0.116788 -0.180749,0.26503 -0.01503,0.07136 -0.0615,0.288622 -0.131888,0.288622 -3.42e-4,0 -6.84e-4,0 -6.84e-4,0 -0.291795,-0.0731 -0.581199,-0.05271 -0.887004,0.06437 -0.158198,0.06087 -0.161615,0.182026 -0.164348,0.279593 -0.0031,0.118827 -0.0072,0.242022 -0.225168,0.371916 -0.148289,0.08883 -0.229951,0.198045 -0.242251,0.324736 -0.02255,0.238819 0.2197,0.44298 0.233367,0.45463 0.0072,0.0047 0.180408,0.133389 0.479379,0.133389 z M 30.76191,10.85247 c 0.04647,0 0.0844,-0.03204 0.0844,-0.07194 V 8.8731824 c 0,-0.0399 -0.03793,-0.07223 -0.0844,-0.07223 -0.04681,0 -0.0844,0.03233 -0.0844,0.07223 V 10.78053 c 0,0.0399 0.03793,0.07194 0.0844,0.07194 z M 29.072981,9.9889349 c 0.04647,0 0.0844,-0.03204 0.0844,-0.07194 V 8.0093564 c 0,-0.03961 -0.03793,-0.07194 -0.0844,-0.07194 -0.04647,0 -0.08439,0.03233 -0.08439,0.07194 v 1.9076385 c 0,0.03961 0.03793,0.07194 0.08439,0.07194 z m 6.840452,9.2047261 c 0.04681,0 0.0844,-0.03233 0.0844,-0.07194 v -3.671114 c 0,-0.0399 -0.03758,-0.07223 -0.0844,-0.07223 -0.04647,0 -0.0844,0.03233 -0.0844,0.07223 v 3.671114 c 0,0.0399 0.03793,0.07194 0.0844,0.07194 z M 35.57551,13.43521 c 0.04647,0 0.0844,-0.02184 0.0844,-0.04864 v -2.484883 c 0,-0.02709 -0.03793,-0.04893 -0.0844,-0.04893 -0.04647,0 -0.0844,0.02184 -0.0844,0.04893 v 2.484882 c 0,0.02679 0.03827,0.04864 0.0844,0.04864 z m -2.026509,-2.303438 c 0.04647,0 0.0844,-0.02184 0.0844,-0.04864 V 8.5979584 c 0,-0.02709 -0.03793,-0.04864 -0.0844,-0.04864 -0.04681,0 -0.0844,0.02184 -0.0844,0.04864 v 2.4848826 c 0,0.02708 0.03758,0.04893 0.0844,0.04893 z m -0.380291,6.88323 v 1.511549 c 0,0.0399 0.03793,0.07194 0.0844,0.07194 0.04647,0 0.08439,-0.03203 0.08439,-0.07194 v -1.511549 c 0,-0.0399 -0.03793,-0.07194 -0.08439,-0.07194 -0.04647,0 -0.0844,0.03204 -0.0844,0.07194 z m -6.544898,-6.492674 c 0.04681,0 0.08474,-0.03204 0.08474,-0.07194 V 7.9776104 c 0,-0.0399 -0.03793,-0.07194 -0.08474,-0.07194 -0.04647,0 -0.0844,0.03204 -0.0844,0.07194 v 3.4727776 c 0,0.03961 0.03793,0.07194 0.0844,0.07194 z m -0.506371,4.458926 c 0.04647,0 0.0844,-0.02184 0.0844,-0.04863 v -2.484886 c 0,-0.02709 -0.03793,-0.04864 -0.0844,-0.04864 -0.04647,0 -0.0844,0.02184 -0.0844,0.04864 v 2.484883 c 0,0.02679 0.03758,0.04863 0.0844,0.04863 z m -8.929147,-1.29137 c 0.04681,0 0.08474,-0.0064 0.08474,-0.01456 v -1.158563 c 0,-0.0079 -0.03758,-0.01456 -0.08474,-0.01456 -0.04647,0 -0.08439,0.0064 -0.08439,0.01456 v 1.158564 c 0,0.0082 0.03793,0.01456 0.08439,0.01456 z"
     id="path2"
     style="stroke-width:0.315455" />
</svg>
