<svg xmlns="http://www.w3.org/2000/svg" xmlns:xlink="http://www.w3.org/1999/xlink" version="1.1" x="0px" y="0px" viewBox="0 0 100 125" enable-background="new 0 0 100 100" xml:space="preserve"><path d="M74.565,62.218v3.69c0,0-2.833-2.991-5.998-3.69h-2.522c-3.121,0.699-5.772,3.69-5.772,3.69s-2.381-2.991-7.778-3.69h-0.891  v27.713h-0.002c-0.016,2.531-2.079,4.587-4.614,4.587c-2.545,0-4.616-2.07-4.616-4.616c0-0.759,0.615-1.372,1.374-1.372  c0.759,0,1.374,0.613,1.374,1.372c0,1.03,0.838,1.869,1.868,1.869c1.029,0,1.866-0.836,1.868-1.865V62.218h-0.994  c-5.59,0.699-8.793,3.69-8.793,3.69s-3.106-2.991-5.931-3.69h-2.178c-2.739,0.699-5.48,3.69-5.48,3.69v-3.69  c0-13.164,10.364-23.905,23.377-24.514v-0.296c0-0.759,0.615-1.373,1.374-1.373s1.374,0.614,1.374,1.373v0.323  C64.42,38.546,74.565,49.195,74.565,62.218z M24.798,20.607c0.047,0.021,1.163,0.509,2.542,0.509c0.569,0,1.1-0.083,1.587-0.248  c-0.474,2.096,0.153,5.183,0.178,5.271v5.149c-0.304-0.215-0.652-0.381-1.004-0.381c-0.292,0-0.818,0.125-1.059,0.958  c-0.357,1.237,0.004,1.989,0.02,2.02c0.052,0.104,0.158,0.17,0.274,0.17h4.704c0.169,0,0.306-0.137,0.306-0.306v-6.188  c0.41,0.209,0.925,0.311,1.556,0.311c1.215,0,2.704-0.38,4.143-0.749c1.363-0.349,2.651-0.679,3.631-0.679  c0.968,0,1.274,0.333,1.41,0.604c0.131,1.695,0.215,3.548,0.172,4.361c-0.261-0.222-0.484-0.346-0.717-0.346  c-0.314,0-0.515,0.215-0.749,0.465c-0.059,0.063-0.124,0.132-0.198,0.206c-0.75,0.75-0.085,2.096-0.057,2.153  c0.052,0.104,0.158,0.168,0.273,0.168h4.205c0.169,0,0.306-0.137,0.306-0.306l-0.002-3.658c-0.123-0.953-0.364-3.625-0.018-4.536  c0.373-0.978,0.182-2.709,0.073-3.459l2.747,0c0.169,0,0.306-0.137,0.306-0.306V20.05c0-0.169-0.137-0.306-0.306-0.306H32.898  v-1.549c0.333,0.312,0.84,0.612,1.605,0.742c0.547,0.093,0.851-0.132,0.913-0.551c0.154-1.068-1.756-3.597-2.737-3.887  c-0.586-0.173-1.704-0.286-2.848-0.286c-0.664,0-1.864,0.039-2.442,0.3c-0.477,0.215-0.74,0.612-1.043,1.072  c-0.332,0.501-0.745,1.126-1.599,1.724c-0.527,0.369-0.816,0.821-0.86,1.347c-0.082,0.996,0.785,1.854,0.821,1.889  C24.734,20.572,24.765,20.592,24.798,20.607z M25.232,47.133c0.136,0,0.247-0.044,0.247-0.099v-7.956c0-0.055-0.111-0.1-0.247-0.1  c-0.137,0-0.248,0.044-0.248,0.1v7.956C24.984,47.088,25.095,47.133,25.232,47.133z M25.232,12.672c0.136,0,0.247-0.044,0.247-0.1  V4.617c0-0.055-0.111-0.1-0.247-0.1c-0.137,0-0.248,0.044-0.248,0.1v7.956C24.984,12.628,25.095,12.672,25.232,12.672z   M31.478,36.035v5.886c0,0.137,0.11,0.247,0.247,0.247c0.136,0,0.247-0.11,0.247-0.247v-5.886c0-0.137-0.111-0.248-0.247-0.248  C31.588,35.788,31.478,35.898,31.478,36.035z M33.702,12.542c0.137,0,0.247-0.071,0.247-0.158V6.297c0-0.087-0.11-0.158-0.247-0.158  s-0.247,0.071-0.247,0.158v6.087C33.455,12.472,33.565,12.542,33.702,12.542z M42.435,14.981c0.137,0,0.248-0.111,0.248-0.248V8.966  c0-0.137-0.111-0.247-0.248-0.247c-0.136,0-0.247,0.11-0.247,0.247v5.767C42.188,14.87,42.299,14.981,42.435,14.981z M55.781,34.1  c0.136,0,0.247-0.11,0.247-0.247V19.879c0-0.137-0.111-0.247-0.247-0.247s-0.247,0.11-0.247,0.247v13.974  C55.534,33.99,55.646,34.1,55.781,34.1z M60.391,28.013c0.306,0,0.621-0.054,0.941-0.161c-0.34,1.683,0.142,4.06,0.161,4.121v4.014  c-0.23-0.149-0.488-0.257-0.749-0.257c-0.248,0-0.694,0.104-0.896,0.802c-0.291,1.008,0.007,1.626,0.02,1.652  c0.05,0.101,0.153,0.165,0.266,0.165h3.757c0.163,0,0.295-0.133,0.295-0.297v-4.859c0.982,0.445,2.8,0.056,4.514-0.383  c1.085-0.278,2.111-0.541,2.888-0.541c0.731,0,0.969,0.243,1.073,0.445c0.099,1.28,0.163,2.677,0.143,3.363  c-0.185-0.144-0.351-0.222-0.525-0.222c-0.273,0-0.449,0.188-0.637,0.387l-0.155,0.163c-0.627,0.626-0.079,1.733-0.056,1.78  c0.051,0.1,0.153,0.163,0.267,0.163h3.354c0.164,0,0.299-0.133,0.299-0.297l-0.004-2.929c-0.098-0.757-0.289-2.881-0.018-3.596  c0.385-1.008,0.03-2.996,0.021-3.03c-0.019-1.914-0.112-5.191-0.56-5.638c-0.357-0.358-1.699-0.829-3.601-1.423l-0.33-0.104  c-0.569-0.18-1.171,0.184-1.263,0.735c-0.063,0.378,0.112,0.864,0.793,1.099l0.522,0.177c0.804,0.271,1.905,0.642,2.093,0.827  c0.115,0.22,0.059,1.494-0.065,2.646h-8.311l-0.003-1.956c0.057-0.348,0.527-3.422-0.653-4.2c-0.091-0.092-0.193-0.139-0.305-0.139  c-0.365,0-0.439,0.401-0.529,0.91c-0.044,0.245-0.18,0.991-0.386,0.991c-0.001,0-0.002,0-0.002,0  c-0.854-0.251-1.701-0.181-2.596,0.221c-0.463,0.209-0.473,0.625-0.481,0.96c-0.009,0.408-0.021,0.831-0.659,1.277  c-0.434,0.305-0.673,0.68-0.709,1.115c-0.066,0.82,0.643,1.521,0.683,1.561C59.009,27.571,59.516,28.013,60.391,28.013z   M63.608,16.257c0.136,0,0.247-0.11,0.247-0.247V9.461c0-0.137-0.111-0.248-0.247-0.248c-0.137,0-0.247,0.111-0.247,0.248v6.549  C63.361,16.147,63.472,16.257,63.608,16.257z M58.665,13.292c0.136,0,0.247-0.11,0.247-0.247v-6.55c0-0.136-0.111-0.247-0.247-0.247  s-0.247,0.111-0.247,0.247v6.55C58.418,13.181,58.529,13.292,58.665,13.292z M78.685,44.897c0.137,0,0.247-0.111,0.247-0.247V32.045  c0-0.137-0.11-0.248-0.247-0.248c-0.136,0-0.247,0.111-0.247,0.248V44.65C78.438,44.787,78.549,44.897,78.685,44.897z   M77.696,25.125c0.136,0,0.247-0.075,0.247-0.167v-8.532c0-0.093-0.111-0.168-0.247-0.168s-0.247,0.075-0.247,0.168v8.532  C77.449,25.05,77.561,25.125,77.696,25.125z M71.765,17.216c0.136,0,0.247-0.075,0.247-0.167V8.516c0-0.093-0.111-0.167-0.247-0.167  c-0.137,0-0.247,0.075-0.247,0.167v8.532C71.518,17.141,71.628,17.216,71.765,17.216z M70.652,40.85v5.19  c0,0.137,0.111,0.247,0.247,0.247s0.247-0.11,0.247-0.247v-5.19c0-0.137-0.111-0.247-0.247-0.247S70.652,40.713,70.652,40.85z   M51.497,18.557c0.137,0,0.248-0.11,0.248-0.247V6.386c0-0.137-0.111-0.247-0.248-0.247c-0.136,0-0.247,0.11-0.247,0.247V18.31  C51.25,18.446,51.361,18.557,51.497,18.557z M50.015,33.867c0.136,0,0.247-0.075,0.247-0.167v-8.532  c0-0.093-0.111-0.167-0.247-0.167s-0.247,0.075-0.247,0.167V33.7C49.768,33.792,49.878,33.867,50.015,33.867z M23.882,29.433  c0.137,0,0.248-0.022,0.248-0.05v-3.978c0-0.027-0.11-0.05-0.248-0.05c-0.136,0-0.247,0.022-0.247,0.05v3.978  C23.635,29.411,23.746,29.433,23.882,29.433z"/><text x="0" y="115" fill="#000000" font-size="5px" font-weight="bold" font-family="'Helvetica Neue', Helvetica, Arial-Unicode, Arial, Sans-serif">Created by Aenne Brielmann</text><text x="0" y="120" fill="#000000" font-size="5px" font-weight="bold" font-family="'Helvetica Neue', Helvetica, Arial-Unicode, Arial, Sans-serif">from the Noun Project</text></svg>