<?xml version="1.0" encoding="UTF-8" standalone="no"?>
<svg
   xmlns:dc="http://purl.org/dc/elements/1.1/"
   xmlns:cc="http://creativecommons.org/ns#"
   xmlns:rdf="http://www.w3.org/1999/02/22-rdf-syntax-ns#"
   xmlns:svg="http://www.w3.org/2000/svg"
   xmlns="http://www.w3.org/2000/svg"
   xmlns:sodipodi="http://sodipodi.sourceforge.net/DTD/sodipodi-0.dtd"
   xmlns:inkscape="http://www.inkscape.org/namespaces/inkscape"
   viewBox="0 0 87 65"
   version="1.1"
   x="0px"
   y="0px"
   id="svg36"
   sodipodi:docname="noun_confused_1715237.svg"
   inkscape:version="1.0.1 (3bc2e813f5, 2020-09-07)">
  <metadata
     id="metadata42">
    <rdf:RDF>
      <cc:Work
         rdf:about="">
        <dc:format>image/svg+xml</dc:format>
        <dc:type
           rdf:resource="http://purl.org/dc/dcmitype/StillImage" />
        <dc:title>Confused Rub</dc:title>
      </cc:Work>
    </rdf:RDF>
  </metadata>
  <defs
     id="defs40" />
  <sodipodi:namedview
     pagecolor="#ffffff"
     bordercolor="#666666"
     borderopacity="1"
     objecttolerance="10"
     gridtolerance="10"
     guidetolerance="10"
     inkscape:pageopacity="0"
     inkscape:pageshadow="2"
     inkscape:window-width="1920"
     inkscape:window-height="1017"
     id="namedview38"
     showgrid="false"
     inkscape:zoom="11.977011"
     inkscape:cx="43.5"
     inkscape:cy="32.5"
     inkscape:window-x="-8"
     inkscape:window-y="-8"
     inkscape:window-maximized="1"
     inkscape:current-layer="svg36" />
  <title
     id="title2">Confused Rub</title>
  <desc
     id="desc4">Created with Sketch.</desc>
  <g
     stroke="none"
     stroke-width="1"
     fill="none"
     fill-rule="evenodd"
     id="g30"
     style="fill:#ff2a2a">
    <g
       transform="translate(-211.000000, -3088.000000)"
       fill="#000000"
       fill-rule="nonzero"
       id="g28"
       style="fill:#ff2a2a">
      <g
         transform="translate(211.133564, 3088.000000)"
         id="g26"
         style="fill:#ff2a2a">
        <path
           d="M27.5815796,26.9265675 C28.9838049,28.7974819 28.5938711,31.6998962 26.880467,33.2922863 C25.5915722,34.4889799 23.7898088,34.9557481 22.045671,35.1862508 C19.1317315,35.5704222 16.1275119,35.4205953 13.3230612,34.5427639 C12.5547186,34.3026568 11.786376,33.9972406 11.210119,33.4421131 C10.7347615,32.9666366 10.3889309,32.3774681 10.205511,31.7306299 C9.33536298,28.8954455 11.331133,25.5301048 14.2393098,24.9327184 C14.825358,24.8289886 15.4190443,24.7743746 16.0141813,24.7694456 L19.7156719,24.6369065 C21.1390267,24.5850434 22.5796691,24.537022 23.974211,24.8289922 C25.3687529,25.1209624 26.7364027,25.7894205 27.5892631,26.9265675 L27.5815796,26.9265675 Z M25.1267249,31.1889483 C25.6760899,30.3264837 25.3188106,29.1086606 24.5658348,28.420994 C23.812859,27.7333273 22.7563879,27.4720908 21.7402548,27.3587603 C19.6273125,27.1224949 17.4836366,27.4221485 15.3726152,27.7218022 C14.5658555,27.8351327 13.6726571,27.9964847 13.1751553,28.6438133 C12.6200277,29.3641345 12.80443,30.4647854 13.3941329,31.1562937 C13.9838359,31.8478021 14.8827968,32.1993189 15.7702325,32.4010088 C17.9484839,32.8946689 20.2170155,32.6315116 22.433684,32.3664334 C23.4344503,32.2434986 24.5735182,32.0437295 25.1190415,31.1870274 L25.1267249,31.1889483 Z"
           id="path6"
           style="fill:#ff2a2a" />
        <path
           d="M11.544348,15.6933983 C13.6258712,14.320155 15.8158541,13.1188443 18.0925481,12.1013965 C28.3691308,7.6622969 40.2419454,8.97040023 51.0102674,12.0284039 C52.1032348,12.3395827 53.6476034,12.4490715 54.0048828,11.3695501 C54.4735718,9.9538788 56.3752198,9.51016093 57.7774451,10.0249505 C59.1796704,10.5397401 60.2284581,11.6826497 61.35408,12.6603657 C63.7671806,14.7486484 66.6931216,16.1562561 69.8308201,16.7383442 C72.6506376,17.2569755 75.7720295,17.1647744 78.0501654,18.9031496 C80.2572297,20.5877408 81.123536,23.6226942 83.3843842,25.2419763 C84.2506905,25.862413 85.2917948,26.2485052 86.0370871,27.0110852 C86.7823795,27.7736653 87.0858748,29.1547612 86.279115,29.8520321 C85.2245648,30.764439 83.6609875,29.679155 82.7178469,28.6514968 L77.9368349,23.4344503 C76.8649969,22.2665695 75.7489793,21.0660341 74.3006534,20.4206263 C72.6333499,19.6772548 70.7355436,19.7579308 68.922255,19.4928526 C63.8780856,18.7514019 59.6886974,15.3495649 55.7797542,12.0783462 C57.6215212,16.3731044 61.3553669,19.5674592 65.8834599,20.7222008 C66.8650176,20.9642287 67.8888341,21.1063721 68.7647447,21.603874 C69.6406553,22.1013758 70.3744225,23.0483581 70.2284374,24.0472035 C69.8454871,26.6676719 70.8115268,29.3043372 72.7967813,31.0571263 C74.7820358,32.8099154 77.5180765,33.4418315 80.0709066,32.7371587 C81.0620686,32.4624762 82.3759345,32.1013552 82.9233786,32.9676615 C83.5361318,33.9280898 82.3720927,35.0441075 81.3117799,35.4455665 C78.2182331,36.6099588 74.758385,36.2627791 71.9578693,34.5069451 C69.1573536,32.7511111 67.3375409,29.7881118 67.0378947,26.4962957 C66.9745064,25.7855787 66.9745064,25.0402864 66.6441191,24.4083246 C66.3137317,23.7763628 65.5050511,23.3191989 64.8750102,23.6553488 C67.756295,32.0706215 66.5211842,41.7920766 61.6210791,49.2161873 C60.9968007,50.1612487 60.1785158,51.1524107 59.0490521,51.2465327 C57.9195885,51.3406547 56.8400671,49.823178 57.671798,49.0548354 C65.2589323,42.0574422 66.1478296,30.3860525 59.707906,22.3203535 C54.4217086,15.6991608 45.4935673,13.1886013 37.0514026,12.4375464 C32.8889064,12.0687419 28.6572593,12.0360873 24.5658348,12.9158396 C20.7702222,13.7322037 17.1686161,15.3245938 13.8551385,17.3510975 C9.27197471,20.1517064 4.99998968,24.1336421 3.75335376,29.358372 C2.32039475,35.3687322 5.24778018,41.6518541 9.32383784,46.2964853 C9.90009482,46.9514974 10.5416609,47.7486529 10.3246041,48.6015132 C10.1325185,49.3698558 9.25084529,49.7905234 8.46905666,49.7117683 C7.68726804,49.6330132 7.00152224,49.1681659 6.4060567,48.6552972 C4.94812655,47.399057 3.83018802,45.7874583 2.91009772,44.0971045 C-0.374567033,38.0598523 -1.14098881,30.3264837 2.3050279,24.3775909 C4.44870384,20.6799419 7.95618796,17.9965053 11.544348,15.6933983 Z"
           id="path8"
           style="fill:#ff2a2a" />
        <path
           d="M27.3837314,43.1385971 C26.880467,42.7793969 26.7767407,42.0360254 27.0110852,41.4636102 C27.2454297,40.8911949 27.7448525,40.4724482 28.2692463,40.1478234 C30.4935982,38.7648067 33.2634734,38.7417564 35.8892844,38.7590441 C36.7306195,38.7590441 37.595005,38.7763318 38.3710311,39.1009566 C39.1470571,39.4255813 39.8193569,40.1459025 39.8212778,40.9872377 C39.8212778,41.9226949 39.0298849,42.6775915 38.1885497,43.086734 C36.8439501,43.7379043 35.3072648,43.822422 33.8282052,43.8166595 C31.9982631,43.8075704 30.170858,43.6792414 28.3576057,43.4324881 C28.0140502,43.4143822 27.6799515,43.3135595 27.3837314,43.1385971 Z"
           id="path10"
           style="fill:#ff2a2a" />
        <path
           d="M44.948044,33.630357 C43.7244583,33.630357 42.4778224,33.6188319 41.3176251,33.2327397 C40.1574277,32.8466475 39.0798271,32.0053123 38.7302312,30.8355107 C38.5929915,30.3113101 38.5526318,29.766454 38.6111381,29.2277537 C38.6637429,28.1830678 38.9639681,27.1658573 39.4870487,26.2600303 C40.2553914,25.0018693 41.5711781,24.1470881 42.9695617,23.6764782 C44.3679453,23.2058684 45.8623717,23.1002212 47.3375896,23.0733292 C48.8128074,23.0464373 50.291867,23.104063 51.6864089,23.5497017 C53.0809508,23.9953404 54.3890541,24.8770136 55.0805625,26.1697501 C55.8213172,27.6327885 55.7765623,29.3702893 54.9614693,30.7932518 C54.1267957,32.194973 52.733162,33.173452 51.1312813,33.4824511 C50.3158205,33.6170892 49.4889408,33.6698551 48.6629806,33.6399613 L44.948044,33.630357 Z M43.3498913,30.6222956 C45.9699816,30.8740084 48.6089953,30.8559859 51.2254033,30.5685116 C52.2127236,30.4609437 52.850448,29.3065089 52.6372329,28.3364763 C52.4240178,27.3664437 51.5730783,26.6384391 50.639542,26.2984474 C49.7060057,25.9584558 48.6917935,25.9411681 47.6987106,25.9277221 L45.3053233,25.8950676 C44.4620673,25.8835424 43.5438978,25.8950676 42.8908066,26.4309866 C42.5346759,26.7574951 42.259733,27.1626742 42.0878885,27.6142342 C41.6768252,28.5420079 41.5116316,29.8501113 42.3779379,30.3745051 C42.6772284,30.5270069 43.0064736,30.6116137 43.3422079,30.6222956 L43.3498913,30.6222956 Z"
           id="path12"
           style="fill:#ff2a2a" />
        <path
           d="M27.0245312,22.3453246 C26.7671365,23.3480117 25.4647957,23.5689102 24.4313748,23.5938814 L14.4640501,23.8186216 C13.3230612,23.8455136 11.8785771,23.6687948 11.5347438,22.5796691 C11.8078913,21.6471516 12.59246,20.9544896 13.5516432,20.7990351 C14.0500937,20.746718 14.5529658,20.7531651 15.0499113,20.8182436 C18.027239,21.0449047 21.0045667,20.4340723 23.9838153,20.3130583 C24.6945322,20.2842455 25.4379037,20.2900081 26.0756281,20.6107911 C26.7133525,20.9315742 27.20125,21.6557371 27.0245312,22.3453246 Z"
           id="path14"
           style="fill:#ff2a2a" />
        <path
           d="M59.6752514,7.23202503 C58.0905447,6.12561164 55.6414526,6.00075596 54.4140252,7.50094495 C54.0298539,7.97347567 53.1769936,7.45100268 53.1904396,6.844012 C53.2038856,6.23702132 53.7167543,5.76641146 54.2219396,5.43026155 C55.1085785,4.84128767 56.0935121,4.41582756 57.1301164,4.17402135 C57.9279674,3.95771818 58.7672635,3.94451131 59.5715251,4.13560422 C60.1314724,4.31829208 60.6654229,4.5726772 61.1600735,4.89242171 L63.0098584,5.97962654 C63.7148128,6.39453156 64.5119683,6.96694682 64.4812346,7.78523172 C64.4428174,8.79176057 63.1039804,9.26621215 62.1512355,8.93774567 C61.1984907,8.60927919 60.5069823,7.81020286 59.6752514,7.23202503 Z"
           id="path16"
           style="fill:#ff2a2a" />
        <path
           d="M45.7548038,16.9035379 C47.3664024,16.72874 48.9607134,17.2877092 50.4609024,17.8908582 C51.4078847,18.2750295 52.5008521,18.9127539 52.4874061,19.9346496 C52.4758809,20.8566608 51.4770355,21.509752 50.5550243,21.509752 C49.6330132,21.509752 48.7820737,21.0487464 47.9580263,20.6357622 C47.1339788,20.2227781 46.2292553,19.8328442 45.3168485,19.9845919 C44.2104351,20.1766775 43.3959919,21.0910053 42.6276492,21.9054484 C41.8593066,22.7198916 40.8988783,23.5516225 39.7751772,23.451738 C39.2795962,23.4075583 38.7359938,23.0675667 38.7417564,22.5700648 C38.7417564,22.2780946 38.933842,22.0245416 39.1144026,21.8017222 C40.8700655,19.5927371 42.9445906,17.2166375 45.7548038,16.9035379 Z"
           id="path18"
           style="fill:#ff2a2a" />
        <path
           d="M59.2276918,2.00153256 C58.9491676,1.44256329 59.3717561,0.758738349 59.9115168,0.445638727 C61.0525056,-0.217056794 62.5142774,0.180560519 63.6859999,0.785630342 C64.3621414,1.13522624 65.0901461,1.69995807 65.0305995,2.45869642 C64.9748947,3.31155675 63.9337904,3.77256232 63.0886135,3.65154836 C62.2434366,3.5305344 61.4981443,3.04071597 60.6798594,2.79292547 C60.1420195,2.62581095 59.4831657,2.51248041 59.2276918,2.00153256 Z"
           id="path20"
           style="fill:#ff2a2a" />
        <path
           d="M18.7456394,28.2577212 C19.8328442,28.0982901 21.2561989,28.3960228 21.4521263,29.4774651 C21.6057948,30.322642 20.8297688,31.0871429 20.0038004,31.3234083 C19.1778321,31.5596736 18.3000006,31.4348179 17.4432986,31.4847602 C16.5520212,31.5347025 16.0506776,30.2899874 16.4828703,29.5062779 C16.915063,28.7225685 17.8639662,28.3883394 18.7456394,28.2577212 Z"
           id="path22"
           style="fill:#ff2a2a" />
        <path
           d="M45.8566092,27.1724372 C46.5903764,26.853575 47.412503,26.6249931 48.1827665,26.8382081 C48.95303,27.0514232 49.6042003,27.8485787 49.4063521,28.6226839 C49.2507627,29.2354372 48.6380095,29.6292128 48.0387022,29.8193776 C47.2551302,30.0600596 46.4173618,30.0600596 45.6337898,29.8193776 C45.1593382,29.6733925 44.6733615,29.3891057 44.533139,28.9127333 C44.3160822,28.152074 45.1228419,27.4932202 45.8566092,27.1724372 Z"
           id="path24"
           style="fill:#ff2a2a" />
      </g>
    </g>
  </g>
  <text
     x="0"
     y="72"
     fill="#000000"
     font-size="5px"
     font-weight="bold"
     font-family="'Helvetica Neue', Helvetica, Arial-Unicode, Arial, Sans-serif"
     id="text34">from the Noun Project</text>
</svg>
