<?xml version="1.0" encoding="UTF-8" standalone="no"?>
<svg
   xmlns:dc="http://purl.org/dc/elements/1.1/"
   xmlns:cc="http://creativecommons.org/ns#"
   xmlns:rdf="http://www.w3.org/1999/02/22-rdf-syntax-ns#"
   xmlns:svg="http://www.w3.org/2000/svg"
   xmlns="http://www.w3.org/2000/svg"
   xmlns:sodipodi="http://sodipodi.sourceforge.net/DTD/sodipodi-0.dtd"
   xmlns:inkscape="http://www.inkscape.org/namespaces/inkscape"
   version="1.1"
   x="0px"
   y="0px"
   viewBox="0 174.3 841.9 1052.375"
   enable-background="new 0 174.3 841.9 841.9"
   xml:space="preserve"
   id="svg18"
   sodipodi:docname="rainingCatsAndDogs.svg"
   inkscape:version="1.0.1 (3bc2e813f5, 2020-09-07)"><metadata
     id="metadata24"><rdf:RDF><cc:Work
         rdf:about=""><dc:format>image/svg+xml</dc:format><dc:type
           rdf:resource="http://purl.org/dc/dcmitype/StillImage" /><dc:title></dc:title></cc:Work></rdf:RDF></metadata><defs
     id="defs22" /><sodipodi:namedview
     pagecolor="#ffffff"
     bordercolor="#666666"
     borderopacity="1"
     objecttolerance="10"
     gridtolerance="10"
     guidetolerance="10"
     inkscape:pageopacity="0"
     inkscape:pageshadow="2"
     inkscape:window-width="1920"
     inkscape:window-height="1017"
     id="namedview20"
     showgrid="false"
     inkscape:zoom="1.8101934"
     inkscape:cx="586.93189"
     inkscape:cy="518.25985"
     inkscape:window-x="1912"
     inkscape:window-y="7"
     inkscape:window-maximized="1"
     inkscape:current-layer="svg18" /><path
     id="path2"
     style="stroke-width:6.36385;fill:#a02c5a"
     d="m 352.70102,274.66504 c -0.9729,0 -1.73879,0.2556 -1.73879,0.57608 v 45.54271 c 0,0.31457 0.76589,0.57608 1.73879,0.57608 0.95215,0 1.73871,-0.25562 1.73871,-0.57608 v -45.54271 c 0,-0.31459 -0.78656,-0.57608 -1.73871,-0.57608 z m 59.91511,9.29296 c -0.97286,0 -1.73878,0.38528 -1.73878,0.88281 v 34.86759 c 0,0.50332 0.76592,0.9221 1.73878,0.9221 0.97288,0 1.73877,-0.42273 1.73877,-0.9221 v -34.86759 c 0,-0.49739 -0.76589,-0.88281 -1.73877,-0.88281 z m 125.85595,0 c -0.9729,0 -1.73877,0.63701 -1.73877,1.42149 v 68.27596 c 0,0.7786 0.78653,1.38218 1.73877,1.38218 0.97284,0 1.73875,-0.59772 1.73875,-1.38218 v -68.27596 c 0,-0.78448 -0.76591,-1.42149 -1.73875,-1.42149 z m 50.69751,0.61343 c -0.95219,0 -1.73875,0.64098 -1.73875,1.42154 v 37.51726 c 0,0.77858 0.78656,1.38218 1.73875,1.38218 0.97291,0 1.7388,-0.5977 1.7388,-1.38218 v -37.51726 c 0,-0.77858 -0.78656,-1.42154 -1.7388,-1.42154 z m 92.66406,12.01916 c -0.9729,0 -1.78017,0.43255 -1.78017,0.95947 v 48.84538 c 0,0.53277 0.80727,0.99876 1.78017,0.99876 0.95222,0 1.73878,-0.43253 1.73878,-0.95945 v -48.88372 c 0,-0.53282 -0.78656,-0.95945 -1.73878,-0.95945 z m -207.4415,2.1122 c -0.97286,0 -1.78013,0.63701 -1.78013,1.42149 v 33.02416 c 0,0.78446 0.82793,1.42147 1.78013,1.42147 0.97288,0 1.73879,-0.63701 1.73879,-1.42147 v -33.02436 c 0,-0.78446 -0.76591,-1.42154 -1.73879,-1.42154 z m 149.74743,2.84161 c -0.97288,0 -1.78014,0.63704 -1.78014,1.42145 v 37.51711 c 0,0.78446 0.80726,1.42149 1.78014,1.42149 0.97291,0 1.7388,-0.63703 1.7388,-1.42149 v -37.51711 c 0,-0.78441 -0.76589,-1.42145 -1.7388,-1.42145 z m -238.89456,28.64661 c -4.69471,0 -13.21467,0.19634 -17.30288,1.68889 -3.37402,1.23081 -5.21423,3.51013 -7.35871,6.14405 -2.34734,2.86875 -5.28048,6.44469 -11.31858,9.86886 -3.72798,2.11294 -5.75449,4.70662 -6.06496,7.71853 -0.57961,5.70323 5.52677,10.62855 5.7814,10.82883 0.20688,0.15712 0.414,0.25962 0.6417,0.34602 0.33109,0.11767 8.23842,2.91848 17.99211,2.91848 4.02399,0 7.75407,-0.47577 11.19849,-1.42149 -3.35331,12.00189 1.1178,29.67889 1.28342,30.18261 v 29.49146 c -2.1507,-1.23077 -4.62641,-2.18867 -7.11656,-2.18867 -2.06998,0 -5.77311,0.72157 -7.47878,5.49113 -2.52539,7.08331 0.002,11.3812 0.20689,11.55871 0.3726,0.59572 1.11778,0.95939 1.94578,0.95939 h 33.27262 c 1.20058,0 2.18173,-0.76084 2.18173,-1.72816 v -35.44363 c 2.90003,1.19734 6.53489,1.76549 10.99774,1.76549 8.59239,0 19.13266,-2.14949 29.31071,-4.26246 9.63982,-1.99834 18.74142,-3.87829 25.67168,-3.87829 6.84742,0 8.98365,1.90315 9.94617,3.45595 0.93148,9.70568 1.55247,20.30489 1.2627,24.96025 -1.84227,-1.27012 -3.44632,-1.99678 -5.094,-1.99678 -2.22106,0 -3.64106,1.25637 -5.29704,2.68785 -0.414,0.35977 -0.89004,0.72745 -1.40757,1.15216 -5.30531,4.29472 -0.6003,12.00025 -0.41398,12.32666 0.37256,0.59571 1.13845,0.95945 1.94572,0.95945 h 29.75352 c 1.20054,0 2.14239,-0.76091 2.14239,-1.72822 v -20.96669 c -0.86938,-5.45706 -2.56468,-20.74214 -0.20689,-25.95859 2.63921,-5.60023 1.30403,-15.51996 0.51749,-19.81474 h 19.4059 c 1.20058,0 2.18383,-0.76088 2.18383,-1.72818 v -9.98407 c 0,-0.96732 -0.99359,-1.76555 -2.18383,-1.76555 H 406.90718 v -8.87041 c 2.35562,1.78715 5.95114,3.5181 11.35995,4.2625 3.86877,0.53282 6.03186,-0.74914 6.46865,-3.14893 1.09709,-6.11538 -12.42598,-20.6116 -19.36455,-22.2722 -4.14406,-0.99092 -12.04301,-1.61217 -20.13452,-1.61217 z m 338.51164,11.71207 c -0.95215,0 -1.73879,0.42667 -1.73879,0.95947 v 48.84537 c 0,0.5269 0.78664,0.95946 1.73879,0.95946 0.97284,0 1.73876,-0.43256 1.73876,-0.95946 v -48.84537 c 0,-0.5328 -0.76592,-0.95947 -1.73876,-0.95947 z m -155.0031,19.31535 c -0.97288,0 -1.7388,0.63701 -1.7388,1.42149 v 79.98802 c 0,0.78442 0.78658,1.42145 1.7388,1.42145 0.95219,0 1.78019,-0.63703 1.78019,-1.42145 v -79.98802 c 0,-0.78448 -0.828,-1.42149 -1.78019,-1.42149 z m 55.79173,5.06905 c -2.58124,0 -3.12354,2.30782 -3.76107,5.22231 -0.31066,1.40384 -1.242,5.68318 -2.7075,5.68318 v 0 c -6.04022,-1.43716 -12.0245,-1.03411 -18.35442,1.26618 -3.27466,1.19736 -3.34093,3.57301 -3.39682,5.49133 0,2.33633 -0.20688,4.74221 -4.64911,7.29599 -3.06978,1.74594 -4.75889,3.88364 -5.01347,6.37447 -0.47609,4.69551 4.52905,8.7183 4.81059,8.94735 0.20688,0.0983 3.75699,2.64971 9.94621,2.64971 2.16305,0 4.36761,-0.30869 6.63004,-0.92205 -2.40528,9.63699 1.03501,23.2284 1.17989,23.57782 v 23.00177 c -1.61456,-0.85326 -3.44856,-1.49814 -5.29497,-1.49814 -1.75944,0 -4.9182,0.61145 -6.34857,4.60789 -2.04927,5.77209 0,9.29774 0.20688,9.44651 0.35192,0.57805 1.09708,0.9595 1.90437,0.9595 h 26.56176 c 1.15923,0 2.10313,-0.78838 2.10313,-1.72822 V 438.8613 c 6.94468,2.54803 19.77643,0.3244 31.89811,-2.18887 7.67544,-1.59254 14.96169,-3.1104 20.45747,-3.1104 5.1708,0 6.8247,1.41561 7.55952,2.57287 0.70378,7.32939 1.1592,15.31041 1.01428,19.23843 -1.30404,-0.82377 -2.49018,-1.26613 -3.71972,-1.26613 -1.92507,0 -3.15875,1.08724 -4.48765,2.22721 l -1.0971,0.92212 c -4.43596,3.58455 -0.5589,9.90693 -0.41404,10.17611 0.35193,0.57211 1.09712,0.95943 1.90441,0.95943 h 23.73213 c 1.15916,0 2.10311,-0.78838 2.10311,-1.72816 v -16.74255 c -0.6831,-4.33463 -2.02856,-16.52682 -0.20688,-20.62102 2.72199,-5.77188 0.22772,-17.12375 0.20688,-17.31856 -0.20688,-10.96025 -0.78661,-29.73531 -3.95988,-32.29479 -2.52533,-2.05001 -12.01819,-4.73947 -25.47088,-8.14082 l -2.3453,-0.61341 c -4.02399,-1.03026 -8.28399,1.06955 -8.93394,4.22395 -0.45539,2.1645 0.80729,4.95199 5.61996,6.29761 l 3.67829,0.99879 c 5.68619,1.55124 13.46721,3.66403 14.79613,4.72337 0.80726,1.26025 0.43468,8.57159 -0.43469,15.16801 h -58.78497 v -11.21283 c 0.41402,-1.99266 3.73634,-19.58371 -4.6077,-24.03867 -0.6417,-0.52696 -1.34546,-0.80615 -2.14448,-0.80615 z m -96.54515,25.65125 c -0.97293,0 -1.78022,0.43258 -1.78022,0.95948 v 48.88529 c 0,0.52687 0.80729,0.9221 1.78022,0.9221 0.97286,0 1.73873,-0.39523 1.73873,-0.9221 v -48.88374 c 0,-0.53278 -0.7866,-0.95945 -1.73873,-0.95945 z m -184.84165,2.03531 c -0.95219,0 -1.73879,0.13728 -1.73879,0.30659 V 417.052 c 0,0.15712 0.7866,0.26913 1.73879,0.26913 0.97284,0 1.73875,-0.0983 1.73875,-0.26913 v -22.77137 c 0,-0.15711 -0.76591,-0.30659 -1.73875,-0.30659 z m 387.59255,36.90273 c -0.95215,0 -1.73875,0.63696 -1.73875,1.42145 v 72.15452 c 0,0.78443 0.7866,1.42147 1.73875,1.42147 0.97292,0 1.73877,-0.64292 1.73877,-1.42147 v -72.15452 c 0,-0.78449 -0.76585,-1.42145 -1.73877,-1.42145 z m -332.1237,22.84825 c -0.97293,0.002 -1.73878,0.63699 -1.73878,1.42143 v 33.67715 c 0,0.78446 0.76585,1.4215 1.73878,1.4215 0.97286,0 1.73877,-0.63704 1.73877,-1.4215 v -33.67715 c 0,-0.78444 -0.78662,-1.42143 -1.73877,-1.42143 z m 130.86934,1.42143 c -5.36949,0 -9.704,3.48769 -9.704,7.83377 v 1.72818 c -92.03681,3.48728 -165.35295,64.97467 -165.35295,140.35334 V 626.182 c 0,0 19.39766,-17.11767 38.7705,-21.12026 h 15.40258 c 19.98139,4.00259 41.96648,21.12026 41.96648,21.12026 0,0 22.64331,-17.11767 62.17965,-21.12026 h 7.03374 v 147.53432 c 0,0.0392 0.20688,0.0392 0.20688,0.0787 5.86426,3.41763 12.84412,3.09325 19.2859,4.49272 V 605.06393 h 6.26578 c 38.17222,4.00236 55.02379,21.12003 55.02379,21.12003 0,0 18.7601,-17.11767 40.83418,-21.12003 h 17.82862 c 22.38462,4.00236 42.40944,21.12003 42.40944,21.12003 v -21.12003 c 0,-74.5714 -71.72635,-135.53309 -162.36181,-140.20001 v -1.88158 c 0,-4.34608 -4.37595,-7.83352 -9.74332,-7.83352 z m -176.79566,16.85776 c -0.9729,0 -1.73879,0.21618 -1.73879,0.53675 v 45.58121 c 0,0.30871 0.76589,0.57608 1.73879,0.57608 0.95215,0 1.73871,-0.26144 1.73871,-0.57608 v -45.58121 c 0,-0.3146 -0.78656,-0.53675 -1.73871,-0.53675 z m 322.9869,9.293 c -0.97286,0 -1.73875,0.63697 -1.73875,1.42143 v 29.72197 c 0,0.78446 0.78658,1.38213 1.73875,1.38213 0.97286,0 1.73878,-0.59767 1.73878,-1.38213 v -29.72197 c 0,-0.78446 -0.78658,-1.42143 -1.73878,-1.42143 z M 537.29839,757.05026 c -0.49682,0.19634 -1.03495,0.38725 -1.53179,0.57606 h 3.47757 v -0.42269 c -0.72449,-0.13728 -1.53178,-0.30871 -1.94578,-0.15711 z" /><g
     id="g12"
     transform="matrix(-0.95692868,0,0,0.89690325,911.6432,261.17703)"
     style="fill:#a02c5a"><circle
       cx="556.90002"
       cy="493.79999"
       r="47.299999"
       id="circle8"
       style="fill:#a02c5a" /><path
       d="m 612.4,551 h -106 c -23.3,0.4 -35.6,24.4 -55.3,49.3 l -41.3,-60.8 c -6.3,-9.2 -18.9,-11.7 -28.2,-5.4 -9.2,6.3 -11.7,18.9 -5.4,28.2 l 59.5,87.3 c 3.6,5.4 9.8,8.7 16.3,8.9 0.2,0 0.3,0 0.5,0 6.3,0 12.3,-3 16.2,-8.1 l 25.9,-34.2 h 6.8 l -0.2,374.2 c 0,14.6 11.9,26.5 26.5,26.5 14.7,0 26.5,-11.9 26.5,-26.5 v -213 H 566 l -0.1,213.1 c 0,14.6 11.9,26.5 26.5,26.5 14.6,0 26.5,-11.9 26.5,-26.5 L 619,616.3 h 11.7 v 141.5 c 0,28.4 37.1,28.4 37,0 V 613.3 C 667.6,581.8 649.2,551 612.4,551 Z"
       id="path10"
       style="fill:#a02c5a" /></g><ellipse
     cx="-429.53183"
     cy="670.03992"
     id="circle2"
     style="fill:#a02c5a;stroke-width:0.832975"
     transform="matrix(0.60010019,-0.79992485,0.84764196,0.53056867,0,0)"
     inkscape:transform-center-x="-5.7358935"
     inkscape:transform-center-y="9.5958698"
     rx="5.6745477"
     ry="5.1660609" /><path
     d="m 268.30895,652.95656 c -5.17466,1.41304 -9.74253,4.75964 -13.70579,10.04259 -4.50024,5.99874 -6.39638,11.64473 -5.68681,16.94105 0.63411,4.75031 4.82147,9.39102 8.50136,12.40662 0.0873,0.071 0.18619,0.12266 0.28796,0.17306 0.10281,0.0808 0.21059,0.15744 0.3251,0.22914 1.93955,1.21403 4.74651,0.57366 6.26266,-1.44734 1.43127,-1.90785 1.18421,-4.37366 -0.50413,-5.65726 -0.0906,-0.0679 -0.4216,-0.31826 -0.47969,-0.3649 -3.05395,-2.45239 -4.89152,-5.01784 -5.51523,-7.6968 -0.74444,-3.19377 0.24651,-6.60774 2.97126,-10.23981 2.20873,-2.9442 4.80528,-4.80719 7.78928,-5.58716 2.98636,-0.78055 5.81745,-0.3313 8.49807,1.34658 1.8843,1.17944 3.31549,2.59867 4.29161,4.26157 0.9761,1.66289 1.63048,3.83254 1.96416,6.5075 l 0.69108,5.16262 c 0.47555,3.73567 1.4654,6.82135 2.97122,9.26018 1.50695,2.4386 3.7188,4.57114 6.63924,6.39913 0.1859,0.11642 0.48085,0.2815 0.88732,0.49588 0.17802,0.094 0.33946,0.17964 0.48722,0.2506 0.0182,0.0113 0.0336,0.0251 0.0519,0.0365 1.96918,1.23258 4.80744,0.57691 6.33879,-1.46434 1.48364,-1.97771 1.19177,-4.52493 -0.61629,-5.8034 5.9e-4,-9.1e-4 -0.002,-0.0108 -0.002,-0.0108 -0.0143,-0.007 -0.0362,-0.0205 -0.0528,-0.0289 -0.0403,-0.0293 -0.0772,-0.0606 -0.12032,-0.0877 -0.12673,-0.0792 -0.25825,-0.14933 -0.39147,-0.21323 -0.43514,-0.25799 -0.98727,-0.5923 -1.32612,-0.80441 -2.20499,-1.38018 -3.79696,-2.89387 -4.78542,-4.54295 -0.98643,-1.64783 -1.65702,-4.1601 -2.01095,-7.53647 l -0.58444,-5.45917 c -0.33582,-3.24487 -1.20509,-6.05186 -2.6046,-8.4252 -1.39925,-2.37106 -3.35935,-4.34819 -5.88097,-5.92655 -4.61919,-2.88925 -9.51602,-3.62678 -14.69059,-2.2178 z"
     id="path4"
     style="fill:#a02c5a;stroke-width:0.831494"
     inkscape:transform-center-x="28.907629"
     inkscape:transform-center-y="-15.319308" /><ellipse
     cx="-56.197311"
     cy="733.46075"
     id="circle2-1"
     style="fill:#a02c5a;stroke-width:1.05147"
     transform="matrix(0.92809349,-0.37234726,0.51354641,0.85806182,0,0)"
     inkscape:transform-center-x="-0.38881382"
     inkscape:transform-center-y="13.404733"
     rx="7.3672967"
     ry="6.3402896" /><path
     d="m 306.22617,577.41662 c -6.85026,-1.56545 -14.25217,-0.75266 -22.21004,2.43998 -9.03608,3.62523 -14.85613,8.41289 -17.46028,14.36715 -2.33832,5.33906 -0.52834,12.65285 1.74819,17.96929 0.0544,0.12556 0.1345,0.23772 0.21876,0.35024 0.0658,0.14493 0.14005,0.28842 0.22517,0.43071 1.44218,2.40967 5.07664,3.39069 8.12094,2.16934 2.87386,-1.15297 4.18186,-3.87612 3.07286,-6.2108 -0.0602,-0.12427 -0.2784,-0.58062 -0.31495,-0.66354 -1.92174,-4.35958 -2.37463,-8.12212 -1.36129,-11.28957 1.20708,-3.77665 4.54774,-6.7631 10.01881,-8.95809 4.43493,-1.77927 8.61707,-2.20016 12.5448,-1.26099 3.93082,0.93996 6.8897,3.07432 8.88293,6.40466 1.40109,2.34101 2.12745,4.66629 2.17431,6.97873 0.0469,2.3124 -0.60256,4.96544 -1.94615,7.95817 l -2.53907,5.80362 c -1.86541,4.18506 -2.72109,7.99302 -2.56717,11.42812 0.15536,3.43551 1.31719,6.96555 3.48872,10.59383 0.13819,0.23102 0.37011,0.57704 0.69819,1.04016 0.14362,0.20295 0.2736,0.38742 0.39737,0.54848 0.0136,0.0225 0.0224,0.0461 0.0359,0.0687 1.4642,2.44647 5.14447,3.42991 8.21927,2.19632 2.97905,-1.19521 4.28816,-4.02982 3.03848,-6.42953 10e-4,-6.1e-4 0.005,-0.0125 0.005,-0.0125 -0.0119,-0.0157 -0.0283,-0.0427 -0.042,-0.0613 -0.0274,-0.0543 -0.0495,-0.10879 -0.0815,-0.16243 -0.0943,-0.15732 -0.19998,-0.30797 -0.31162,-0.45311 -0.33282,-0.52558 -0.75065,-1.19974 -1.0026,-1.62073 -1.63955,-2.73944 -2.48944,-5.25801 -2.5594,-7.56325 -0.0685,-2.30274 0.78354,-5.3235 2.55661,-9.06143 l 2.85284,-6.05094 c 1.70897,-3.5898 2.52315,-7.03549 2.44896,-10.3396 -0.0753,-3.30159 -1.04859,-6.52111 -2.92357,-9.65393 -3.43599,-5.73665 -8.57936,-9.38704 -15.4269,-10.95668 z"
     id="path4-8"
     style="fill:#a02c5a;stroke-width:1.04492"
     inkscape:transform-center-x="29.097631"
     inkscape:transform-center-y="-28.396204" /></svg>
